# xmcd CD database file
#
# Track frame offsets:
#	150
#	22363
#	41773
#	58587
#	79204
#	98028
#	117526
#	138085
#	164400
#	184846
#	222874
#	238714
#	257601
#	273710
#	289536
#	309826
#	322639
#	341771
#
# Disc length: 4772 seconds
#
# Revision: 0
# Processed by: cddbd v1.5.2PL0 Copyright (c) Steve Scherf et al.
# Submitted via: CDex 1.51
#
DISCID=0712a212
DTITLE=Thorogood, George - The BEST of
DYEAR=2001
DGENRE=Blues
TTITLE0=Bad to the Bone
TTITLE1=Move it on Over
TTITLE2=I'm A Steady Rolling Man
TTITLE3=You Talk too Much
TTITLE4=Get a Haircut
TTITLE5=Who Do You Love?
TTITLE6=Gear Jammer
TTITLE7=Highway 49
TTITLE8=I Drink Alone
TTITLE9=One Bourbon, One Scotch, One Beer
TTITLE10=Boogie People
TTITLE11=If You Don't Start Drinkin' (I'm Gonna Leave)
TTITLE12=Born to be Bad
TTITLE13=Treat her Right
TTITLE14=Long Gone
TTITLE15=Rock and Roll Man
TTITLE16=Louie to Frisco
TTITLE17=Can't be Satisfied
EXTD=YEAR: 2001
EXTT0=
EXTT1=
EXTT2=
EXTT3=
EXTT4=
EXTT5=
EXTT6=
EXTT7=
EXTT8=
EXTT9=
EXTT10=
EXTT11=
EXTT12=
EXTT13=
EXTT14=
EXTT15=
EXTT16=
EXTT17=
PLAYORDER=
